<svg width="22" height="24" viewBox="0 0 22 24" fill="none" xmlns="http://www.w3.org/2000/svg">
<g filter="url(#filter0_d_1_3130)">
<path d="M15.996 11.1226L14.1579 10.9127C13.7164 10.8621 13.2822 11.0141 12.971 11.3252L11.6395 12.6568C9.59144 11.6147 7.91251 9.94301 6.87041 7.88775L8.20922 6.54894C8.5204 6.23775 8.67237 5.80355 8.62171 5.3621L8.41185 3.53842C8.325 2.8075 7.70988 2.2575 6.97173 2.2575H5.71976C4.902 2.2575 4.22175 2.93776 4.2724 3.75552C4.65595 9.93577 9.59868 14.8713 15.7717 15.2548C16.5894 15.3055 17.2697 14.6252 17.2697 13.8075V12.5555C17.2769 11.8246 16.7269 11.2095 15.996 11.1226Z" fill="#212121"/>
</g>
<defs>
<filter id="filter0_d_1_3130" x="-2" y="0" width="26" height="26" filterUnits="userSpaceOnUse" color-interpolation-filters="sRGB">
<feFlood flood-opacity="0" result="BackgroundImageFix"/>
<feColorMatrix in="SourceAlpha" type="matrix" values="0 0 0 0 0 0 0 0 0 0 0 0 0 0 0 0 0 0 127 0" result="hardAlpha"/>
<feOffset dy="4"/>
<feGaussianBlur stdDeviation="2"/>
<feComposite in2="hardAlpha" operator="out"/>
<feColorMatrix type="matrix" values="0 0 0 0 0 0 0 0 0 0 0 0 0 0 0 0 0 0 0.25 0"/>
<feBlend mode="normal" in2="BackgroundImageFix" result="effect1_dropShadow_1_3130"/>
<feBlend mode="normal" in="SourceGraphic" in2="effect1_dropShadow_1_3130" result="shape"/>
</filter>
</defs>
</svg>
